# xmcd
#
# Track frame offsets: 
#        150
#        19037
#        44890
#        65875
#        92402
#        115437
#        142342
#        159165
#        188790
#        214287
#        238115
#        261872
#        287492
#        307542
#
# Disc length: 4333 seconds
#
# Revision: 7
# Processed by: cddbd v1.5.2PL0 Copyright (c) Steve Scherf et al.
# Submitted via: ExactAudioCopy v0.95a4
#
DISCID=ce10eb0e
DTITLE=Bon Jovi - Crossroad
DYEAR=1994
DGENRE=Rock
TTITLE0=Livin' On a Prayer
TTITLE1=Keep the Faith
TTITLE2=Someday I'll Be Saturday Night
TTITLE3=Always
TTITLE4=Wanted Dead or Alive
TTITLE5=Lay Your Hands On Me
TTITLE6=You Give Love a Bad Name
TTITLE7=Bed of Roses
TTITLE8=Blaze of Glory
TTITLE9=Prayer '94
TTITLE10=Bad Medicine
TTITLE11=I'll Be There for You
TTITLE12=In and Out of Love
TTITLE13=Runaway
EXTD=
EXTT0=
EXTT1=
EXTT2=
EXTT3=
EXTT4=
EXTT5=
EXTT6=
EXTT7=
EXTT8=
EXTT9=
EXTT10=
EXTT11=
EXTT12=
EXTT13=
PLAYORDER=
